<?xml version="1.0" encoding="iso-8859-1"?>
<!-- Uploaded to: SVG Repo, www.svgrepo.com, Generator: SVG Repo Mixer Tools -->
<svg fill="#000000" version="1.1" id="Capa_1" xmlns="http://www.w3.org/2000/svg" xmlns:xlink="http://www.w3.org/1999/xlink" 
	 viewBox="0 0 60 60" xml:space="preserve">
<g>
	<g>
		<path d="M57,0H3C1.3,0,0,1.3,0,3v37v9c0,0.6,0.4,1,1,1h20v8h-3v2h3h2h14h2h3v-2h-3v-8h20c0.6,0,1-0.4,1-1v-9V3C60,1.3,58.7,0,57,0
			z M2,3c0-0.6,0.4-1,1-1h54c0.6,0,1,0.4,1,1v36h-3V6c0-0.6-0.4-1-1-1H6C5.4,5,5,5.4,5,6v33H2V3z M13,17h8v-2h-8v-2h20v2v4H13V17z
			 M39,26v-2c0-2.2-1.8-4-4-4v-4h12v18H35v-4C37.2,30,39,28.2,39,26z M35,28v-6c1.1,0,2,0.9,2,2v2C37,27.1,36.1,28,35,28z M13,21h20
			v14v4H13V21z M35,36h13c0.6,0,1-0.4,1-1V15c0-0.6-0.4-1-1-1H35v-2c0-0.6-0.4-1-1-1H12c-0.6,0-1,0.4-1,1v27H7V7h46v32H35V36z
			 M37,58H23v-8h14V58z M58,48H38H22H2v-7h4h6h22h20h4V48z"/>
		<rect x="16" y="23" width="2" height="2"/>
		<rect x="20" y="23" width="2" height="2"/>
		<rect x="24" y="23" width="2" height="2"/>
		<rect x="28" y="23" width="2" height="2"/>
		<rect x="16" y="27" width="2" height="2"/>
		<rect x="20" y="27" width="2" height="2"/>
		<rect x="24" y="27" width="2" height="2"/>
		<rect x="28" y="27" width="2" height="2"/>
		<rect x="16" y="31" width="2" height="2"/>
		<rect x="20" y="31" width="2" height="2"/>
		<rect x="24" y="31" width="2" height="2"/>
		<rect x="28" y="31" width="2" height="2"/>
		<rect x="16" y="35" width="2" height="2"/>
		<rect x="20" y="35" width="2" height="2"/>
		<rect x="24" y="35" width="2" height="2"/>
		<rect x="28" y="35" width="2" height="2"/>
		<rect x="23" y="15" width="4" height="2"/>
		<path d="M43,22h2v-3c0-0.6-0.4-1-1-1h-3v2h2V22z"/>
		<path d="M45,31v-3h-2v2h-2v2h3C44.6,32,45,31.6,45,31z"/>
	</g>
</g>
</svg>